<?xml version="1.0" encoding="UTF-8"?>
<svg version="1.1" xmlns="http://www.w3.org/2000/svg" width="1024" height="1024">
<path d="M0 0 C337.92 0 675.84 0 1024 0 C1024 337.92 1024 675.84 1024 1024 C686.08 1024 348.16 1024 0 1024 C0 686.08 0 348.16 0 0 Z " fill="#FCFDFD" transform="translate(0,0)"/>
<path d="M0 0 C1.26839329 -0.00529263 1.26839329 -0.00529263 2.56241068 -0.01069218 C3.49342194 -0.0094944 4.4244332 -0.00829663 5.38365692 -0.00706255 C6.37519784 -0.00971438 7.36673876 -0.01236621 8.38832638 -0.01509839 C11.74333108 -0.02281737 15.09829933 -0.02335156 18.45331234 -0.02394831 C20.87003311 -0.02796122 23.28675321 -0.03239916 25.7034725 -0.03722787 C31.66979178 -0.04795875 37.63609979 -0.05395387 43.60242605 -0.05793675 C50.74629796 -0.0629429 57.89015844 -0.07366998 65.03402361 -0.08441848 C82.30324189 -0.11005863 99.57246463 -0.12508613 116.84169649 -0.13792895 C122.56108838 -0.14218282 128.28047995 -0.14674853 133.99987143 -0.15151227 C164.40298165 -0.176772 194.80609241 -0.19882258 225.20921081 -0.21124041 C232.25464356 -0.2141618 239.30007629 -0.2171293 246.34550899 -0.22014582 C247.65848361 -0.22070219 247.65848361 -0.22070219 248.99798297 -0.22126979 C277.37862854 -0.23342564 305.7592121 -0.26436974 334.13982855 -0.30606735 C363.31097489 -0.34884831 392.48208849 -0.37548059 421.65326706 -0.38071512 C425.77292979 -0.38145558 429.89259246 -0.38236627 434.01225513 -0.3833729 C434.82305073 -0.38356352 435.63384633 -0.38375413 436.4692115 -0.38395052 C449.52103439 -0.38746497 462.57277966 -0.40776694 475.62457403 -0.43416954 C488.74315292 -0.46030713 501.86164207 -0.46804459 514.98024327 -0.45706825 C522.77451616 -0.45108928 530.56848476 -0.45901423 538.36271162 -0.48689909 C544.18241841 -0.50617935 550.00190389 -0.4993372 555.82162427 -0.48232992 C558.17634609 -0.47951968 560.53109631 -0.4851849 562.8857723 -0.50014286 C566.08621809 -0.51923176 569.28514405 -0.50747008 572.48555511 -0.48808062 C573.40017821 -0.50092984 574.3148013 -0.51377906 575.25714025 -0.52701765 C583.29589355 -0.41997935 589.63106823 2.37961946 595.75005001 7.56745183 C607.27466619 21.46478312 601.87505001 22.30597218 601.87505001 48.12995183 C522.67505001 48.45995183 443.47505001 48.78995183 361.87505001 49.12995183 C366.49505001 51.10995183 371.11505001 53.08995183 375.87505001 55.12995183 C376.20505001 56.11995183 376.53505001 57.10995183 376.87505001 58.12995183 C451.12505001 58.12995183 525.37505001 58.12995183 601.87505001 58.12995183 C601.87505001 147.55995183 601.87505001 236.98995183 601.87505001 329.12995183 C395.29505001 329.12995183 188.71505001 329.12995183 -24.12494999 329.12995183 C-24.12494999 239.69995183 -24.12494999 150.26995183 -24.12494999 58.12995183 C85.00005001 57.87995183 85.00005001 57.87995183 119.48100704 57.83210027 C129.66374073 57.79888831 129.66374073 57.79888831 139.84645504 57.76038396 C144.38872513 57.74335026 148.93086271 57.73752154 153.47316402 57.73841131 C159.26440979 57.73918114 165.05530105 57.72094942 170.8464548 57.68886268 C172.97352062 57.68033035 175.10062631 57.67851567 177.22770184 57.68412769 C180.09870373 57.69074415 182.96855049 57.67292347 185.83943599 57.64893377 C186.67383646 57.65669458 187.50823692 57.66445539 188.36792225 57.67245138 C193.71555978 57.59346337 196.54526693 56.51329619 200.87505001 53.12995183 C205.04548165 51.08131875 208.19891379 49.70484854 212.87505001 50.12995183 C212.87505001 49.46995183 212.87505001 48.80995183 212.87505001 48.12995183 C134.66505001 48.12995183 56.45505001 48.12995183 -24.12494999 48.12995183 C-24.12494999 14.90772961 -24.12494999 14.90772961 -17.87494999 7.44245183 C-12.79452327 3.17027482 -6.73141084 0.00888001 0 0 Z " fill="#313337" transform="translate(223.12494999170303,290.87004816532135)"/>
<path d="M0 0 C207.24 0 414.48 0 628 0 C628 88.83606557 628 88.83606557 619.1875 97.9375 C612.58516831 103.66702878 605.24122788 104.4415274 596.88618469 104.37752342 C595.39185325 104.38406391 595.39185325 104.38406391 593.86733329 104.39073652 C590.52640719 104.4016919 587.18589385 104.39126912 583.8449707 104.38095093 C581.42663264 104.38440736 579.00829615 104.38917183 576.58996296 104.39513266 C571.3306099 104.40505469 566.07137873 104.40564478 560.81203079 104.39799118 C552.99120076 104.38664095 545.17044864 104.39244638 537.34961912 104.4016161 C523.38143213 104.41741381 509.4132863 104.41604396 495.44509539 104.40737936 C483.22133726 104.39983404 470.99759421 104.39786197 458.77383423 104.4014473 C457.55780178 104.40179103 457.55780178 104.40179103 456.31720302 104.40214171 C453.02639233 104.40307571 449.73558165 104.40403091 446.44477098 104.405021 C415.57159593 104.41419893 384.6984471 104.40587613 353.82527609 104.38973031 C326.39359449 104.37549339 298.96195467 104.37676727 271.53027344 104.39111328 C240.7137281 104.4071756 209.89720594 104.41354805 179.08065701 104.40427649 C175.7958266 104.40331433 172.51099619 104.40237581 169.22616577 104.4014473 C168.41735098 104.40121006 167.60853618 104.40097283 166.77521185 104.40072841 C154.55884459 104.39731534 142.34249409 104.40130804 130.12612915 104.40888596 C116.23620418 104.41745902 102.34632682 104.4153293 88.45640779 104.39904372 C80.68176634 104.39022897 72.90722799 104.3896683 65.13258919 104.40098225 C59.33123351 104.40849388 53.52996906 104.40035798 47.72862375 104.38605852 C45.37880502 104.38270002 43.02897254 104.38442867 40.67916262 104.39168589 C37.49051551 104.40078038 34.30243276 104.39147956 31.11381531 104.37752342 C30.19697177 104.38454692 29.28012823 104.39157042 28.33550155 104.39880675 C19.53388691 104.32157324 13.1572377 101.86426808 6.6328125 95.8515625 C4.50242393 93.43576302 3.61337614 91.14355271 3 88 C2.34 88 1.68 88 1 88 C-4.75311138 59.23444308 0 29.33522721 0 0 Z " fill="#313338" transform="translate(198,629)"/>
<path d="M0 0 C15.84 0 31.68 0 48 0 C48 3.63 48 7.26 48 11 C52.29 11 56.58 11 61 11 C61 14.63 61 18.26 61 22 C65.62 22 70.24 22 75 22 C75 30.58 75 39.16 75 48 C78.63 48 82.26 48 86 48 C86 57.9 86 67.8 86 78 C97.88 78 109.76 78 122 78 C122 68.1 122 58.2 122 48 C126.29 48 130.58 48 135 48 C135 39.09 135 30.18 135 21 C139.62 21 144.24 21 149 21 C149 17.7 149 14.4 149 11 C153.29 11 157.58 11 162 11 C162 7.37 162 3.74 162 0 C178.17 0 194.34 0 211 0 C211 3.63 211 7.26 211 11 C215.62 11 220.24 11 225 11 C225 14.63 225 18.26 225 22 C228.96 22 232.92 22 237 22 C237 30.58 237 39.16 237 48 C237.99 48 238.98 48 240 48 C240.02332902 64.28070303 240.04097919 80.56140067 240.05181217 96.84211636 C240.05697512 104.40101619 240.0640178 111.95990565 240.07543945 119.51879883 C240.08538632 126.10479666 240.09185343 132.69078698 240.09408849 139.27679211 C240.0953956 142.76613071 240.09848142 146.25544784 240.10573006 149.74477959 C240.11374398 153.63381232 240.11399114 157.52282378 240.11352539 161.41186523 C240.11712067 162.57711227 240.12071594 163.74235931 240.12442017 164.94291687 C240.1230455 165.99606079 240.12167084 167.04920471 240.12025452 168.13426208 C240.12163721 169.51556887 240.12163721 169.51556887 240.12304783 170.92478085 C240 173 240 173 239 174 C236.81360547 174.07258946 234.62499611 174.08373783 232.4375 174.0625 C231.23996094 174.05347656 230.04242187 174.04445313 228.80859375 174.03515625 C227.88175781 174.02355469 226.95492188 174.01195312 226 174 C226 177.96 226 181.92 226 186 C146.47 186 66.94 186 -15 186 C-15 182.04 -15 178.08 -15 174 C-19.95 174 -24.9 174 -30 174 C-30 132.42 -30 90.84 -30 48 C-29.34 48 -28.68 48 -28 48 C-28 39.42 -28 30.84 -28 22 C-23.71 22 -19.42 22 -15 22 C-15 18.37 -15 14.74 -15 11 C-10.05 11 -5.1 11 0 11 C0 7.37 0 3.74 0 0 Z " fill="#FAFAFA" transform="translate(405,423)"/>
<path d="M0 0 C19.47 0 38.94 0 59 0 C59 3.96 59 7.92 59 12 C64.28 12 69.56 12 75 12 C75 15.63 75 19.26 75 23 C78.96 23 82.92 23 87 23 C87 29.27 87 35.54 87 42 C83.04 42 79.08 42 75 42 C75 45.63 75 49.26 75 53 C69.72 53 64.44 53 59 53 C59 56.63 59 60.26 59 64 C54.71 64 50.42 64 46 64 C46 67.63 46 71.26 46 75 C34.12 75 22.24 75 10 75 C10 71.37 10 67.74 10 64 C6.7 64 3.4 64 0 64 C0 60.37 0 56.74 0 53 C-5.28 53 -10.56 53 -16 53 C-16 49.37 -16 45.74 -16 42 C-19.96 42 -23.92 42 -28 42 C-28 35.73 -28 29.46 -28 23 C-24.04 23 -20.08 23 -16 23 C-16 19.37 -16 15.74 -16 12 C-10.72 12 -5.44 12 0 12 C0 8.04 0 4.08 0 0 Z " fill="#303238" transform="translate(481,511)"/>
<path d="M0 0 C17.16 0 34.32 0 52 0 C52 3.63 52 7.26 52 11 C55.63 11 59.26 11 63 11 C63 19.58 63 28.16 63 37 C59.37 37 55.74 37 52 37 C52 40.63 52 44.26 52 48 C38.8 48 25.6 48 12 48 C12 56.25 12 64.5 12 73 C8.04 73 4.08 73 0 73 C0 48.91 0 24.82 0 0 Z " fill="#FAFAFA" transform="translate(648,645)"/>
<path d="M0 0 C21.45 0 42.9 0 65 0 C65 3.96 65 7.92 65 12 C47.51 12 30.02 12 12 12 C12 18.27 12 24.54 12 31 C25.53 31 39.06 31 53 31 C53 34.63 53 38.26 53 42 C39.47 42 25.94 42 12 42 C12 48.6 12 55.2 12 62 C29.49 62 46.98 62 65 62 C65 65.96 65 69.92 65 74 C43.55 74 22.1 74 0 74 C0 49.58 0 25.16 0 0 Z " fill="#F2F2F2" transform="translate(735,645)"/>
<path d="M0 0 C15.18 0 30.36 0 46 0 C46 16.83 46 33.66 46 51 C30.82 51 15.64 51 0 51 C0 34.17 0 17.34 0 0 Z " fill="#76C833" transform="translate(567,461)"/>
<path d="M0 0 C4.29 0 8.58 0 13 0 C13 20.46 13 40.92 13 62 C25.87 62 38.74 62 52 62 C52 41.54 52 21.08 52 0 C56.29 0 60.58 0 65 0 C65 20.79 65 41.58 65 63 C61.04 63 57.08 63 53 63 C53 66.63 53 70.26 53 74 C39.47 74 25.94 74 12 74 C12 70.37 12 66.74 12 63 C8.04 63 4.08 63 0 63 C0 42.21 0 21.42 0 0 Z " fill="#989B9D" transform="translate(309,645)"/>
<path d="M0 0 C4.29 0 8.58 0 13 0 C13 6.93 13 13.86 13 21 C15.6915625 20.9690625 15.6915625 20.9690625 18.4375 20.9375 C20.29166122 20.9161878 22.14712498 20.92773498 24 21 C25 22 25 22 25.09765625 24.50390625 C25.08605469 25.51324219 25.07445312 26.52257812 25.0625 27.5625 C25.05347656 28.57441406 25.04445313 29.58632813 25.03515625 30.62890625 C25.02355469 31.41136719 25.01195312 32.19382812 25 33 C28.3 33 31.6 33 35 33 C35 29.04 35 25.08 35 21 C38.96 21 42.92 21 47 21 C47 14.07 47 7.14 47 0 C51.29 0 55.58 0 60 0 C60 7.26 60 14.52 60 22 C56.04 22 52.08 22 48 22 C48 25.96 48 29.92 48 34 C44.37 34 40.74 34 37 34 C37 35.98 37 37.96 37 40 C40.63 40 44.26 40 48 40 C48 43.96 48 47.92 48 52 C51.63 52 55.26 52 59 52 C59 58.93 59 65.86 59 73 C55.04 73 51.08 73 47 73 C47 66.4 47 59.8 47 53 C43.37 53 39.74 53 36 53 C36 49.04 36 45.08 36 41 C32.37 41 28.74 41 25 41 C25 44.96 25 48.92 25 53 C21.04 53 17.08 53 13 53 C13 59.6 13 66.2 13 73 C9.04 73 5.08 73 1 73 C1 66.07 1 59.14 1 52 C4.63 52 8.26 52 12 52 C12 48.04 12 44.08 12 40 C15.96 40 19.92 40 24 40 C24 38.02 24 36.04 24 34 C23.21753906 34.01160156 22.43507813 34.02320313 21.62890625 34.03515625 C20.61699219 34.04417969 19.60507812 34.05320312 18.5625 34.0625 C17.55316406 34.07410156 16.54382813 34.08570313 15.50390625 34.09765625 C13 34 13 34 12 33 C11.85689713 29.3308423 11.95778338 25.67284559 12 22 C8.04 22 4.08 22 0 22 C0 14.74 0 7.48 0 0 Z " fill="#83A06F" transform="translate(397,645)"/>
<path d="M0 0 C21.12 0 42.24 0 64 0 C64 3.96 64 7.92 64 12 C55.75 12 47.5 12 39 12 C39 32.46 39 52.92 39 74 C35.04 74 31.08 74 27 74 C26 73 26 73 25.87974548 70.56394958 C25.8830764 68.94179283 25.8830764 68.94179283 25.88647461 67.28686523 C25.88655014 66.0656749 25.88662567 64.84448456 25.88670349 63.58628845 C25.89181089 62.24372314 25.89702689 60.90115825 25.90234375 59.55859375 C25.90420801 58.19238842 25.90563187 56.82618243 25.90663147 55.4599762 C25.91045606 51.85798305 25.92028583 48.25603 25.93133545 44.65405273 C25.94155084 40.98096255 25.94612936 37.30786591 25.95117188 33.63476562 C25.96190816 26.42315666 25.97950447 19.21158905 26 12 C17.42 12 8.84 12 0 12 C0 8.04 0 4.08 0 0 Z " fill="#EBECEC" transform="translate(478,645)"/>
<path d="M0 0 C21.45 0 42.9 0 65 0 C65 3.96 65 7.92 65 12 C56.42 12 47.84 12 39 12 C39 32.13 39 52.26 39 73 C35.04 73 31.08 73 27 73 C27 52.87 27 32.74 27 12 C18.09 12 9.18 12 0 12 C0 8.04 0 4.08 0 0 Z " fill="#F1F1F1" transform="translate(223,645)"/>
<path d="M0 0 C4.29 0 8.58 0 13 0 C13 7.92 13 15.84 13 24 C16.96 24 20.92 24 25 24 C25 27.63 25 31.26 25 35 C28.63 35 32.26 35 36 35 C35.979375 33.205625 35.95875 31.41125 35.9375 29.5625 C35.9161878 27.70833878 35.92773498 25.85287502 36 24 C36.495 23.505 36.495 23.505 37 23 C40.63 23 44.26 23 48 23 C48 15.41 48 7.82 48 0 C52.29 0 56.58 0 61 0 C61 8.25 61 16.5 61 25 C57.37 25 53.74 25 50 25 C50.020625 26.629375 50.04125 28.25875 50.0625 29.9375 C50.08386068 31.62499341 50.07205511 33.31391034 50 35 C49.67 35.33 49.34 35.66 49 36 C45.04 36 41.08 36 37 36 C37 48.21 37 60.42 37 73 C32.71 73 28.42 73 24 73 C24 60.79 24 48.58 24 36 C20.04 36 16.08 36 12 36 C12 32.37 12 28.74 12 25 C9.3084375 25.0309375 9.3084375 25.0309375 6.5625 25.0625 C4.70833878 25.0838122 2.85287502 25.07226502 1 25 C0 24 0 24 -0.11352539 21.68334961 C-0.10828857 20.68311768 -0.10305176 19.68288574 -0.09765625 18.65234375 C-0.09443359 17.57275391 -0.09121094 16.49316406 -0.08789062 15.38085938 C-0.07951172 14.24455078 -0.07113281 13.10824219 -0.0625 11.9375 C-0.05798828 10.79732422 -0.05347656 9.65714844 -0.04882812 8.48242188 C-0.0369976 5.65492582 -0.0190615 2.82745655 0 0 Z " fill="#999999" transform="translate(563,645)"/>
<path d="M0 0 C7.26 0 14.52 0 22 0 C22 3.3 22 6.6 22 10 C25.63 10 29.26 10 33 10 C33 16.6 33 23.2 33 30 C29.37 30 25.74 30 22 30 C22 33.63 22 37.26 22 41 C14.74 41 7.48 41 0 41 C0 37.37 0 33.74 0 30 C-3.63 30 -7.26 30 -11 30 C-11 23.73 -11 17.46 -11 11 C-7.37 11 -3.74 11 0 11 C0 7.37 0 3.74 0 0 Z " fill="#32333A" transform="translate(421,471)"/>
<path d="M0 0 C1.31948135 -0.00137466 2.63896271 -0.00274933 3.99842834 -0.00416565 C5.45372032 -0.00062692 6.90901207 0.00300788 8.36430359 0.00672913 C9.90196735 0.0070113 11.43963124 0.00685267 12.97729492 0.00628662 C17.14629919 0.00599984 21.31527466 0.01187742 25.48427224 0.01886058 C29.84314086 0.02511384 34.20201015 0.02569948 38.56088257 0.02688599 C46.8126428 0.02999348 55.06438977 0.03819903 63.31614417 0.04823548 C72.71148462 0.05941467 82.10682571 0.06491162 91.50217116 0.06993091 C110.82690967 0.08038212 130.15163583 0.09797031 149.47636414 0.12025452 C149.47636414 2.76025452 149.47636414 5.40025452 149.47636414 8.12025452 C95.02636414 8.12025452 40.57636414 8.12025452 -15.52363586 8.12025452 C-15.52363586 5.12025452 -15.52363586 5.12025452 -13.83613586 2.99525452 C-9.71519591 -0.34604815 -5.14065569 -0.00413568 0 0 Z " fill="#71BA36" transform="translate(659.5236358642578,600.8797454833984)"/>
<path d="M0 0 C24.49488304 -0.02332612 48.98976443 -0.04097776 73.48465633 -0.05181217 C84.8572063 -0.05697574 96.22974938 -0.0640196 107.60229492 -0.07543945 C117.51076864 -0.08538443 127.41923737 -0.09185298 137.32771593 -0.09408849 C142.57762905 -0.09539592 147.82752789 -0.09848376 153.07743645 -0.10573006 C158.01276996 -0.11248734 162.94808325 -0.11461756 167.88342094 -0.11310768 C169.7003541 -0.11338414 171.5172879 -0.11539099 173.33421707 -0.11920547 C175.80368289 -0.12413818 178.27307106 -0.12299987 180.74253845 -0.12025452 C181.83541661 -0.12462378 181.83541661 -0.12462378 182.95037311 -0.12908131 C187.88587879 -0.11412121 187.88587879 -0.11412121 189 1 C189.04080783 2.99958364 189.04254356 5.00045254 189 7 C165.39113174 7.14017304 141.78232587 7.24597263 118.17312527 7.31087303 C107.21089707 7.34180867 96.24892746 7.38398384 85.28686523 7.45263672 C75.73211417 7.5124474 66.17755037 7.55115127 56.6226173 7.56453097 C51.56343182 7.57235188 46.50478209 7.59072686 41.44576836 7.63438034 C36.68258512 7.67514761 31.92015761 7.68766071 27.15681648 7.67864609 C25.41009029 7.68029489 23.66333848 7.69220561 21.91676331 7.71523285 C7.06965113 7.90135616 7.06965113 7.90135616 2.40614319 4.01992798 C0 1 0 1 0 0 Z " fill="#76C434" transform="translate(620,360)"/>
<path d="M0 0 C60.72 0 121.44 0 184 0 C184 2 184 2 181.46744347 4.58742046 C177.90443996 7.42046731 175.09141839 7.61738864 170.52090454 7.60127258 C169.42290624 7.60768077 169.42290624 7.60768077 168.30272615 7.61421841 C165.86085394 7.6224252 163.42071661 7.5950045 160.97900391 7.56762695 C159.22444703 7.56621597 157.4698872 7.56700944 155.71533203 7.56983948 C150.95938127 7.57127308 146.20406202 7.54189233 141.44825792 7.50696969 C136.47549682 7.47569692 131.50272097 7.47277472 126.52987671 7.46684265 C117.11637291 7.45130693 107.70315971 7.41028206 98.28978384 7.3600952 C87.57163094 7.30419336 76.8534641 7.2767131 66.13520169 7.25161803 C44.08997231 7.19936604 22.04500447 7.11142894 0 7 C0 4.69 0 2.38 0 0 Z " fill="#79C535" transform="translate(216,360)"/>
<path d="M0 0 C19.74925342 -0.02334896 39.49850405 -0.04098901 59.2477684 -0.05181217 C68.41746227 -0.05697087 77.58714757 -0.06400549 86.75683594 -0.07543945 C94.74810296 -0.08539926 102.73936378 -0.09185653 110.73063684 -0.09408849 C114.96286554 -0.09539339 119.19507648 -0.09846532 123.4272995 -0.10573006 C127.40972291 -0.1125107 131.39212123 -0.11461277 135.37454987 -0.11310768 C136.83707312 -0.11338309 138.29959721 -0.1153761 139.76211548 -0.11920547 C141.7575622 -0.12417454 143.75302235 -0.12239012 145.74847412 -0.12025452 C146.86568722 -0.12117631 147.98290031 -0.1220981 149.13396835 -0.12304783 C153.07600305 0.04619622 155.19770428 0.33142024 158.25 2.875 C160 5 160 5 160 8 C107.2 8 54.4 8 0 8 C0 5.36 0 2.72 0 0 Z " fill="#78C934" transform="translate(216,601)"/>
<path d="M0 0 C45.87 0 91.74 0 139 0 C139 2.31 139 4.62 139 7 C138 8 138 8 135.72175503 8.12304783 C134.70501737 8.12212604 133.68827971 8.12120424 132.64073181 8.12025452 C131.47820389 8.12162918 130.31567596 8.12300385 129.11791992 8.12442017 C127.83111328 8.12082489 126.54430664 8.11722961 125.21850586 8.11352539 C123.85876976 8.11324352 122.4990335 8.11340125 121.13929749 8.1139679 C117.43698222 8.11425587 113.73469908 8.10835912 110.03239131 8.10139394 C106.16731219 8.09516043 102.30223242 8.0945566 98.43714905 8.09336853 C91.11315318 8.09025521 83.78917216 8.0820418 76.46518284 8.07201904 C68.12916552 8.06085794 59.79314751 8.05534746 51.45712459 8.05032361 C34.30474112 8.03985919 17.15237213 8.02225973 0 8 C0 5.36 0 2.72 0 0 Z " fill="#74B93A" transform="translate(657,589)"/>
<path d="M0 0 C46.53 0 93.06 0 141 0 C141 2.64 141 5.28 141 8 C123.20659743 8.14011194 105.41333786 8.24594218 87.61950302 8.31087303 C79.35763874 8.34182191 71.09611705 8.38402155 62.83447266 8.45263672 C55.63426909 8.51240787 48.4343136 8.55114166 41.23386884 8.56453097 C37.42052076 8.57235887 33.60788242 8.59077572 29.79476166 8.63438034 C26.20605277 8.6750865 22.6183463 8.68767387 19.02942848 8.67864609 C17.08344875 8.68108568 15.1375784 8.71338533 13.19187927 8.746521 C4.88499292 8.68736641 4.88499292 8.68736641 2.31177521 6.68877029 C0.79625119 4.5270574 0 2.65620161 0 0 Z " fill="#72BD37" transform="translate(645,384)"/>
<path d="M0 0 C53.13 0 106.26 0 161 0 C161 2.31 161 4.62 161 7 C140.74660905 7.16348562 120.49335189 7.28694324 100.23943806 7.3626852 C90.8352637 7.39878762 81.43149919 7.44801166 72.02758789 7.52807617 C63.83158367 7.59782338 55.63587623 7.64300196 47.43958348 7.65861946 C43.0990867 7.66774964 38.759439 7.6892206 34.41921425 7.7401104 C30.33388114 7.78762349 26.24974674 7.80228171 22.16416359 7.79175377 C20.66490666 7.79367967 19.1656097 7.80760694 17.66659164 7.83443832 C15.61923482 7.86928718 13.5712348 7.85671425 11.52363586 7.84178162 C10.37784719 7.84823417 9.23205851 7.85468672 8.05154896 7.8613348 C5 7 5 7 0 0 Z " fill="#F8F9F9" transform="translate(633,372)"/>
<path d="M0 0 C45.21 0 90.42 0 137 0 C137 3 137 3 135.5625 4.5625 C135.046875 5.036875 134.53125 5.51125 134 6 C133.67 6.66 133.34 7.32 133 8 C89.11 8 45.22 8 0 8 C0 5.36 0 2.72 0 0 Z " fill="#EAEBEB" transform="translate(238,384)"/>
<path d="M0 0 C51.48 0 102.96 0 156 0 C153.35248903 5.29502194 153.35248903 5.29502194 151 7 C148.27263355 7.36914349 148.27263355 7.36914349 144.9066925 7.36076355 C143.63203125 7.36488754 142.35737 7.36901154 141.04408264 7.3732605 C139.62875155 7.36264302 138.2134226 7.35173859 136.7980957 7.34057617 C135.30998756 7.33973009 133.82187816 7.34020467 132.33377075 7.34190369 C128.2905796 7.34276582 124.24765446 7.32510494 120.20452523 7.30418181 C115.98045458 7.28545126 111.75637811 7.28366744 107.53227234 7.28010559 C99.5318463 7.27077446 91.53154298 7.24614626 83.53117102 7.21605712 C74.42367414 7.18254631 65.31617146 7.16603546 56.2086283 7.15097082 C37.47234924 7.11959761 18.73618448 7.06681639 0 7 C0 4.69 0 2.38 0 0 Z " fill="#FCFDFD" transform="translate(230,372)"/>
<path d="M0 0 C43.89 0 87.78 0 133 0 C133 2.64 133 5.28 133 8 C89.11 8 45.22 8 0 8 C0 5.36 0 2.72 0 0 Z " fill="#74B83A" transform="translate(230,589)"/>
<path d="M0 0 C12.87 0 25.74 0 39 0 C39 7.92 39 15.84 39 24 C26.13 24 13.26 24 0 24 C0 16.08 0 8.16 0 0 Z " fill="#2F3338" transform="translate(660,657)"/>
<path d="M0 0 C38.28 0 76.56 0 116 0 C114 5 114 5 113 7 C75.71 7 38.42 7 0 7 C0 4.69 0 2.38 0 0 Z " fill="#74C532" transform="translate(250,397)"/>
<path d="M0 0 C34.98 0 69.96 0 106 0 C106 2.31 106 4.62 106 7 C71.02 7 36.04 7 0 7 C0 4.69 0 2.38 0 0 Z " fill="#F7F7F7" transform="translate(233,553)"/>
<path d="M0 0 C3.63 0 7.26 0 11 0 C11 20.13 11 40.26 11 61 C7.37 61 3.74 61 0 61 C0 40.87 0 20.74 0 0 Z " fill="#FAFBFB" transform="translate(362,646)"/>
<path d="M0 0 C3.63 0 7.26 0 11 0 C11 20.13 11 40.26 11 61 C7.37 61 3.74 61 0 61 C0 40.87 0 20.74 0 0 Z " fill="#FAFAFA" transform="translate(310,646)"/>
<path d="M0 0 C7.92 0 15.84 0 24 0 C24 7.92 24 15.84 24 24 C16.08 24 8.16 24 0 24 C0 16.08 0 8.16 0 0 Z " fill="#79C933" transform="translate(742,302)"/>
<path d="M0 0 C23.43 0 46.86 0 71 0 C71 2.64 71 5.28 71 8 C47.57 8 24.14 8 0 8 C0 5.36 0 2.72 0 0 Z " fill="#E9E8E9" transform="translate(217,540)"/>
<path d="M0 0 C17.16 0 34.32 0 52 0 C52 3.63 52 7.26 52 11 C55.63 11 59.26 11 63 11 C63 19.58 63 28.16 63 37 C59.37 37 55.74 37 52 37 C52 40.63 52 44.26 52 48 C51.67 48 51.34 48 51 48 C51 44.37 51 40.74 51 37 C37.8 37 24.6 37 11 37 C10.979375 32.895625 10.95875 28.79125 10.9375 24.5625 C10.928396 23.26642822 10.91929199 21.97035645 10.90991211 20.63500977 C10.90741455 19.62237061 10.90491699 18.60973145 10.90234375 17.56640625 C10.89448853 16.00321655 10.89448853 16.00321655 10.88647461 14.40844727 C11 12 11 12 12 11 C14.8843382 10.91134792 17.74462158 10.88478704 20.62890625 10.90234375 C21.92525246 10.90446617 21.92525246 10.90446617 23.24778748 10.90663147 C26.01939292 10.91224761 28.7909188 10.92480281 31.5625 10.9375 C33.4368478 10.94251292 35.31119685 10.94707619 37.18554688 10.95117188 C41.79039544 10.96222228 46.39518421 10.9794977 51 11 C51 7.7 51 4.4 51 1 C34.5 1 18 1 1 1 C1 24.76 1 48.52 1 73 C0.67 73 0.34 73 0 73 C0 48.91 0 24.82 0 0 Z M12 12 C12 19.92 12 27.84 12 36 C24.87 36 37.74 36 51 36 C51 28.08 51 20.16 51 12 C38.13 12 25.26 12 12 12 Z " fill="#B9B9B9" transform="translate(648,645)"/>
<path d="M0 0 C1.71005219 -0.002062 1.71005219 -0.002062 3.45465088 -0.00416565 C5.33199669 0.00122726 5.33199669 0.00122726 7.24726868 0.00672913 C8.56443878 0.0065831 9.88160889 0.00643707 11.23869324 0.00628662 C14.85205032 0.00599936 18.46537429 0.01188457 22.07872367 0.01886058 C25.8543708 0.02510599 29.63001867 0.02569886 33.40567017 0.02688599 C40.55606139 0.02999579 47.70643734 0.03820447 54.85682184 0.04823548 C62.99700044 0.05940748 71.13717977 0.06490981 79.27736413 0.06993091 C96.02295649 0.08038736 112.76853349 0.09798004 129.51411438 0.12025452 C127.3788391 2.6849101 126.18791388 3.99571921 122.85110855 4.61244583 C121.31908861 4.60691507 121.31908861 4.60691507 119.75611877 4.60127258 C118.5810527 4.60677124 117.40598663 4.6122699 116.1953125 4.61793518 C114.26725517 4.59636353 114.26725517 4.59636353 112.30024719 4.57435608 C110.93021681 4.57322754 109.56018401 4.5738616 108.19015503 4.5761261 C104.47335623 4.57727393 100.75707361 4.55375403 97.04039478 4.52583027 C93.15533883 4.50082785 89.27027109 4.49847554 85.38514709 4.49372864 C78.02926975 4.48129541 70.67363015 4.44846925 63.3178575 4.40833068 C54.94310884 4.36362366 46.56834882 4.34162864 38.19351053 4.32154894 C20.96690762 4.2797368 3.74053614 4.20937816 -13.48588562 4.12025452 C-13.48588562 3.79025452 -13.48588562 3.46025452 -13.48588562 3.12025452 C-11.83588562 3.12025452 -10.18588562 3.12025452 -8.48588562 3.12025452 C-8.48588562 2.46025452 -8.48588562 1.80025452 -8.48588562 1.12025452 C-5.38099707 0.08529167 -3.25482822 -0.00302212 0 0 Z " fill="#2B2C32" transform="translate(666.4858856201172,596.8797454833984)"/>
<path d="M0 0 C4.29 0 8.58 0 13 0 C13 8.25 13 16.5 13 25 C9.37 25 5.74 25 2 25 C2.020625 26.629375 2.04125 28.25875 2.0625 29.9375 C2.08386068 31.62499341 2.07205511 33.31391034 2 35 C1.505 35.495 1.505 35.495 1 36 C-2.96 36 -6.92 36 -11 36 C-11 48.21 -11 60.42 -11 73 C-11.33 73 -11.66 73 -12 73 C-12.02526838 66.03996553 -12.04283222 59.0799428 -12.05493164 52.11987305 C-12.05997341 49.75007688 -12.06680665 47.38028385 -12.07543945 45.01049805 C-12.0875119 41.61245961 -12.09322971 38.21446215 -12.09765625 34.81640625 C-12.10281754 33.74975235 -12.10797882 32.68309845 -12.11329651 31.5841217 C-12.11337204 30.60318039 -12.11344757 29.62223907 -12.11352539 28.61157227 C-12.115746 27.74331314 -12.11796661 26.87505402 -12.12025452 25.98048401 C-12 24 -12 24 -11 23 C-7.37 23 -3.74 23 0 23 C0 15.41 0 7.82 0 0 Z " fill="#788B6C" transform="translate(611,645)"/>
<path d="M0 0 C20.13 0 40.26 0 61 0 C61 2.64 61 5.28 61 8 C40.87 8 20.74 8 0 8 C0 5.36 0 2.72 0 0 Z " fill="#E7E7E7" transform="translate(279,565)"/>
<path d="M0 0 C3.63 0 7.26 0 11 0 C11 12.54 11 25.08 11 38 C7.37 38 3.74 38 0 38 C0 25.46 0 12.92 0 0 Z " fill="#F9F9F9" transform="translate(588,680)"/>
<path d="M0 0 C12.87 0 25.74 0 39 0 C39 3.3 39 6.6 39 10 C26.13 10 13.26 10 0 10 C0 6.7 0 3.4 0 0 Z " fill="#FBFBFC" transform="translate(322,708)"/>
<path d="M0 0 C15.51 0 31.02 0 47 0 C47 2.31 47 4.62 47 7 C46 8 46 8 44.13340759 8.12025452 C43.31844315 8.11803391 42.5034787 8.11581329 41.66381836 8.11352539 C40.28249977 8.11341209 40.28249977 8.11341209 38.87327576 8.11329651 C37.87224319 8.10813522 36.87121063 8.10297394 35.83984375 8.09765625 C34.82024063 8.0962413 33.80063751 8.09482635 32.75013733 8.09336853 C29.47922893 8.08775097 26.20838787 8.0751955 22.9375 8.0625 C20.72591244 8.05748726 18.51432382 8.05292396 16.30273438 8.04882812 C10.86846643 8.03777584 5.43423803 8.02102063 0 8 C0 5.36 0 2.72 0 0 Z " fill="#E3E4E5" transform="translate(679,565)"/>
<path d="M0 0 C15.18 0 30.36 0 46 0 C46 2.64 46 5.28 46 8 C30.82 8 15.64 8 0 8 C0 5.36 0 2.72 0 0 Z " fill="#E4E3E4" transform="translate(294,540)"/>
<path d="M0 0 C50.16 0 100.32 0 152 0 C152 0.33 152 0.66 152 1 C102.17 1 52.34 1 1 1 C1 2.98 1 4.96 1 7 C52.15 6.67 103.3 6.34 156 6 C156.33 5.01 156.66 4.02 157 3 C157.99 3.66 158.98 4.32 160 5 C160 5.99 160 6.98 160 8 C107.2 8 54.4 8 0 8 C0 5.36 0 2.72 0 0 Z " fill="#5E9834" transform="translate(216,601)"/>
<path d="M0 0 C3.63 0 7.26 0 11 0 C11 7.92 11 15.84 11 24 C7.37 24 3.74 24 0 24 C0 16.08 0 8.16 0 0 Z " fill="#FAFAF9" transform="translate(700,657)"/>
<path d="M0 0 C3.63 0 7.26 0 11 0 C11 7.59 11 15.18 11 23 C7.37 23 3.74 23 0 23 C0 15.41 0 7.82 0 0 Z " fill="#71C928" transform="translate(612,646)"/>
<path d="M0 0 C3.63 0 7.26 0 11 0 C11 7.59 11 15.18 11 23 C7.37 23 3.74 23 0 23 C0 15.41 0 7.82 0 0 Z " fill="#F8F8F8" transform="translate(564,646)"/>
<path d="M0 0 C75.9 0 151.8 0 230 0 C225.5 3.375 225.5 3.375 222 4 C222 3.34 222 2.68 222 2 C148.74 1.67 75.48 1.34 0 1 C0 0.67 0 0.34 0 0 Z " fill="#F2F1F2" transform="translate(203,340)"/>
<path d="M0 0 C3.63 0 7.26 0 11 0 C11 6.93 11 13.86 11 21 C7.37 21 3.74 21 0 21 C0 14.07 0 7.14 0 0 Z " fill="#F5F5F5" transform="translate(445,697)"/>
<path d="M0 0 C3.63 0 7.26 0 11 0 C11 6.93 11 13.86 11 21 C7.37 21 3.74 21 0 21 C0 14.07 0 7.14 0 0 Z " fill="#F8F9F8" transform="translate(398,697)"/>
<path d="M0 0 C3.63 0 7.26 0 11 0 C11 6.6 11 13.2 11 20 C7.37 20 3.74 20 0 20 C0 13.4 0 6.8 0 0 Z " fill="#F9FAF9" transform="translate(398,646)"/>
<path d="M0 0 C4.29 0 8.58 0 13 0 C13 6.93 13 13.86 13 21 C16.63 21 20.26 21 24 21 C24 24.96 24 28.92 24 33 C20.04 33 16.08 33 12 33 C12 29.37 12 25.74 12 22 C8.04 22 4.08 22 0 22 C0 14.74 0 7.48 0 0 Z M1 1 C1 7.6 1 14.2 1 21 C4.63 21 8.26 21 12 21 C12 14.4 12 7.8 12 1 C8.37 1 4.74 1 1 1 Z " fill="#F4F5F4" transform="translate(397,645)"/>
<path d="M0 0 C3.3 0 6.6 0 10 0 C10 6.6 10 13.2 10 20 C6.7 20 3.4 20 0 20 C0 13.4 0 6.8 0 0 Z " fill="#FAFBFA" transform="translate(446,646)"/>
<path d="M0 0 C8.25 0 16.5 0 25 0 C25 2.31 25 4.62 25 7 C24 8 24 8 21.68334961 8.11352539 C20.68311768 8.10828857 19.68288574 8.10305176 18.65234375 8.09765625 C17.57275391 8.09443359 16.49316406 8.09121094 15.38085938 8.08789062 C14.24455078 8.07951172 13.10824219 8.07113281 11.9375 8.0625 C10.79732422 8.05798828 9.65714844 8.05347656 8.48242188 8.04882812 C5.65489649 8.03699747 2.8274736 8.0205141 0 8 C0 5.36 0 2.72 0 0 Z " fill="#E5E6E5" transform="translate(248,565)"/>
<path d="M0 0 C4.29 0 8.58 0 13 0 C13 20.46 13 40.92 13 62 C23.23 62 33.46 62 44 62 C44 62.33 44 62.66 44 63 C33.77 63 23.54 63 13 63 C13 66.3 13 69.6 13 73 C12.67 73 12.34 73 12 73 C12 69.7 12 66.4 12 63 C8.04 63 4.08 63 0 63 C0 42.21 0 21.42 0 0 Z M1 1 C1 21.13 1 41.26 1 62 C4.63 62 8.26 62 12 62 C12 41.87 12 21.74 12 1 C8.37 1 4.74 1 1 1 Z " fill="#A3A5A6" transform="translate(309,645)"/>
<path d="M0 0 C55.77 0 111.54 0 169 0 C169 0.33 169 0.66 169 1 C115.21 1.33 61.42 1.66 6 2 C6.66 2.66 7.32 3.32 8 4 C3.91927658 3.44855089 3.08669204 3.08669204 0 0 Z " fill="#F0EFF0" transform="translate(587,340)"/>
<path d="M0 0 C51.48 0 102.96 0 156 0 C154 4 154 4 151 6 C151 5.01 151 4.02 151 3 C151.66 3 152.32 3 153 3 C153 2.34 153 1.68 153 1 C102.84 1 52.68 1 1 1 C1 2.98 1 4.96 1 7 C0.67 7 0.34 7 0 7 C0 4.69 0 2.38 0 0 Z " fill="#E3E4E4" transform="translate(230,372)"/>
<path d="M0 0 C6.93 0 13.86 0 21 0 C21 2.64 21 5.28 21 8 C14.07 8 7.14 8 0 8 C0 5.36 0 2.72 0 0 Z " fill="#77C731" transform="translate(703,318)"/>
<path d="M0 0 C2.97 0 5.94 0 9 0 C9 3.3 9 6.6 9 10 C6.03 10 3.06 10 0 10 C0 12.31 0 14.62 0 17 C-2.64 17 -5.28 17 -8 17 C-8 14.36 -8 11.72 -8 9 C-5.36 9 -2.72 9 0 9 C0 6.03 0 3.06 0 0 Z " fill="#76AE39" transform="translate(798,301)"/>
<path d="M0 0 C3.96 0 7.92 0 12 0 C12 3.63 12 7.26 12 11 C8.04 11 4.08 11 0 11 C0 7.37 0 3.74 0 0 Z " fill="#F3F3F3" transform="translate(409,686)"/>
<path d="M0 0 C3.96 0 7.92 0 12 0 C12 3.63 12 7.26 12 11 C8.04 11 4.08 11 0 11 C0 7.37 0 3.74 0 0 Z " fill="#F5F6F5" transform="translate(433,667)"/>
<path d="M0 0 C3.96 0 7.92 0 12 0 C12 3.3 12 6.6 12 10 C8.04 10 4.08 10 0 10 C0 6.7 0 3.4 0 0 Z " fill="#F5F4F1" transform="translate(600,670)"/>
<path d="M0 0 C3.63 0 7.26 0 11 0 C11 3.63 11 7.26 11 11 C7.03611362 11.07622858 3.8726592 10.9681648 0 10 C0 6.7 0 3.4 0 0 Z " fill="#F7F8F8" transform="translate(434,686)"/>
<path d="M0 0 C3.63 0 7.26 0 11 0 C11 3.3 11 6.6 11 10 C7.37 10 3.74 10 0 10 C0 6.7 0 3.4 0 0 Z " fill="#F8F7F6" transform="translate(576,670)"/>
<path d="M0 0 C0.33 0 0.66 0 1 0 C1.71170712 10.46756939 2.22249836 20.54084739 1 31 C-2.96 31 -6.92 31 -11 31 C-11 37.6 -11 44.2 -11 51 C-11.33 51 -11.66 51 -12 51 C-12 44.07 -12 37.14 -12 30 C-8.04 30 -4.08 30 0 30 C0 26.37 0 22.74 0 19 C-3.96 19 -7.92 19 -12 19 C-12 18.67 -12 18.34 -12 18 C-8.04 18 -4.08 18 0 18 C0 16.02 0 14.04 0 12 C-3.63 12 -7.26 12 -11 12 C-11 11.67 -11 11.34 -11 11 C-7.37 11 -3.74 11 0 11 C0 7.37 0 3.74 0 0 Z " fill="#899281" transform="translate(421,667)"/>
<path d="M0 0 C4.29 0 8.58 0 13 0 C13 6.93 13 13.86 13 21 C16.63 21 20.26 21 24 21 C24 21.33 24 21.66 24 22 C20.37 22 16.74 22 13 22 C13 25.63 13 29.26 13 33 C12.67 33 12.34 33 12 33 C12 29.37 12 25.74 12 22 C8.04 22 4.08 22 0 22 C0 14.74 0 7.48 0 0 Z M1 1 C1 7.6 1 14.2 1 21 C4.63 21 8.26 21 12 21 C12 14.4 12 7.8 12 1 C8.37 1 4.74 1 1 1 Z " fill="#A3A5A4" transform="translate(397,645)"/>
<path d="M0 0 C2.97 0 5.94 0 9 0 C9 2.97 9 5.94 9 9 C6.03 9 3.06 9 0 9 C0 6.03 0 3.06 0 0 Z " fill="#79B734" transform="translate(798,318)"/>
<path d="M0 0 C2.97 0 5.94 0 9 0 C9 2.97 9 5.94 9 9 C6.03 9 3.06 9 0 9 C0 6.03 0 3.06 0 0 Z " fill="#71BA30" transform="translate(781,318)"/>
<path d="M0 0 C1.41693406 0.0079306 2.83388237 0.03719432 4.25 0.0859375 C4.9615625 0.08722656 5.673125 0.08851563 6.40625 0.08984375 C10.15390603 0.15277081 13.07015241 0.39072423 16.25 2.4609375 C16.25 3.1209375 16.25 3.7809375 16.25 4.4609375 C8.33 4.4609375 0.41 4.4609375 -7.75 4.4609375 C-3.75 0.4609375 -3.75 0.4609375 0 0 Z " fill="#434549" transform="translate(255.75,560.5390625)"/>
<path d="M0 0 C2.97 0 5.94 0 9 0 C9 2.64 9 5.28 9 8 C6.03 8 3.06 8 0 8 C0 5.36 0 2.72 0 0 Z " fill="#72BA39" transform="translate(781,302)"/>
<path d="M0 0 C2.64 0 5.28 0 8 0 C8 2.64 8 5.28 8 8 C5.36 8 2.72 8 0 8 C0 5.36 0 2.72 0 0 Z " fill="#85D338" transform="translate(798,302)"/>
<path d="M0 0 C16.83 0 33.66 0 51 0 C51 0.33 51 0.66 51 1 C36.15 1.33 21.3 1.66 6 2 C6.66 2.66 7.32 3.32 8 4 C3.91927658 3.44855089 3.08669204 3.08669204 0 0 Z " fill="#F1F1F2" transform="translate(587,340)"/>
<path d="M0 0 C12.87 0 25.74 0 39 0 C39 0.33 39 0.66 39 1 C37.92516357 1.01981934 36.85032715 1.03963867 35.74291992 1.06005859 C31.75635286 1.13611258 27.7701509 1.22483009 23.78393555 1.31738281 C22.05842292 1.35567345 20.33283044 1.39052621 18.60717773 1.421875 C16.12715105 1.46752404 13.64767409 1.52551781 11.16796875 1.5859375 C10.01001045 1.60326431 10.01001045 1.60326431 8.82865906 1.62094116 C5.04753326 1.72521273 3.21981165 1.8534589 0 4 C0 2.68 0 1.36 0 0 Z " fill="#26272D" transform="translate(661,694)"/>
<path d="M0 0 C7.59 0 15.18 0 23 0 C21 4 21 4 18 6 C18 5.01 18 4.02 18 3 C18.66 3 19.32 3 20 3 C20 2.34 20 1.68 20 1 C13.4 1 6.8 1 0 1 C0 0.67 0 0.34 0 0 Z " fill="#D2D3D3" transform="translate(363,372)"/>
<path d="M0 0 C6.6 0 13.2 0 20 0 C20 0.33 20 0.66 20 1 C11.585 1.495 11.585 1.495 3 2 C2.34 3.65 1.68 5.3 1 7 C0.67 7 0.34 7 0 7 C0 4.69 0 2.38 0 0 Z " fill="#212328" transform="translate(422,472)"/>
<path d="M0 0 C2.64 0 5.28 0 8 0 C8 1.65 8 3.3 8 5 C7.34 4.01 6.68 3.02 6 2 C4.515 4.475 4.515 4.475 3 7 C1.25372522 4.38058783 0.61277612 2.96175123 0 0 Z " fill="#8DDB3D" transform="translate(798,302)"/>
<path d="M0 0 C0.33 0 0.66 0 1 0 C1.33 4.62 1.66 9.24 2 14 C-0.64 14 -3.28 14 -6 14 C-5.67 13.34 -5.34 12.68 -5 12 C-3.35 12 -1.7 12 0 12 C0 8.04 0 4.08 0 0 Z " fill="#22242B" transform="translate(452,486)"/>
<path d="M0 0 C2.97 0 5.94 0 9 0 C9 0.33 9 0.66 9 1 C6.69 1.66 4.38 2.32 2 3 C1.67 6.3 1.34 9.6 1 13 C0.67 13 0.34 13 0 13 C0 8.71 0 4.42 0 0 Z " fill="#232327" transform="translate(263,658)"/>
<path d="M0 0 C3.96 0 7.92 0 12 0 C12 0.33 12 0.66 12 1 C11.04287109 1.09087891 11.04287109 1.09087891 10.06640625 1.18359375 C9.24011719 1.26738281 8.41382813 1.35117187 7.5625 1.4375 C6.32693359 1.55931641 6.32693359 1.55931641 5.06640625 1.68359375 C3.01337975 1.78930815 3.01337975 1.78930815 2 3 C1.63239269 5.32817964 1.29758419 7.6618385 1 10 C0.67 10 0.34 10 0 10 C0 6.7 0 3.4 0 0 Z " fill="#212226" transform="translate(466,524)"/>
<path d="M0 0 C3.3 0 6.6 0 10 0 C6 3 6 3 2.75 2.6875 C1.8425 2.460625 0.935 2.23375 0 2 C0 1.34 0 0.68 0 0 Z " fill="#73BA37" transform="translate(661,590)"/>
<path d="M0 0 C2.97 0 5.94 0 9 0 C8.01 0.66 7.02 1.32 6 2 C6.66 2.66 7.32 3.32 8 4 C3.91927658 3.44855089 3.08669204 3.08669204 0 0 Z " fill="#D6D6D8" transform="translate(587,340)"/>
<path d="M0 0 C3.3 0 6.6 0 10 0 C5.5 3.375 5.5 3.375 2 4 C2 3.34 2 2.68 2 2 C1.34 1.34 0.68 0.68 0 0 Z " fill="#E4E4E5" transform="translate(423,340)"/>
<path d="M0 0 C2.625 -0.1875 2.625 -0.1875 5 0 C5 0.99 5 1.98 5 3 C2.69 3 0.38 3 -2 3 C-1.34 2.01 -0.68 1.02 0 0 Z " fill="#7FBD35" transform="translate(792,315)"/>
</svg>
